PathFileType	4	(X/Y/Z)	C:\Users\chris\Documents\GitHub\baseballds\vids\pitch5_Sports2D\pitch5_Sports2D_m_person01.trc
DataRate	CameraRate	NumFrames	NumMarkers	Units	OrigDataRate	OrigDataStartFrame	OrigNumFrames
30	30	8	22	m	30	130	149
Frame#	Time	Hip			RHip			RKnee			RAnkle			RBigToe			RSmallToe			RHeel			LHip			LKnee			LAnkle			LBigToe			LSmallToe			LHeel			Neck			Head			Nose			RShoulder			RElbow			RWrist			LShoulder			LElbow			LWrist		
		X1	Y1	Z1	X2	Y2	Z2	X3	Y3	Z3	X4	Y4	Z4	X5	Y5	Z5	X6	Y6	Z6	X7	Y7	Z7	X8	Y8	Z8	X9	Y9	Z9	X10	Y10	Z10	X11	Y11	Z11	X12	Y12	Z12	X13	Y13	Z13	X14	Y14	Z14	X15	Y15	Z15	X16	Y16	Z16	X17	Y17	Z17	X18	Y18	Z18	X19	Y19	Z19	X20	Y20	Z20	X21	Y21	Z21	X22	Y22	Z22
130	4.333333333333333	0.6255814824187389	0.8958674211740822	0.0	0.5522991474276715	0.8705635938291144	0.0	0.5314531822242803	0.6346849833021281	0.0	0.5125651651647294	0.38268272595080177	0.0	0.44317640436031275	0.3016202185609813	0.0	0.4231490352440954	0.30963779506289535	0.0	0.5333768689233737	0.3416867170672043	0.0	0.700194980599044	0.875019243952637	0.0	0.7420292035493297	0.6555061092034673	0.0	0.7596246074224424	0.4844288914398946	0.0	0.7420020136924265	0.3945902289630621	0.0	0.7857405656575615	0.40275051934221334	0.0	0.7606065766869483	0.46553295918746374	0.0	0.5860669880180462	1.2899761515672459	0.0	0.5904258168414135	1.4510742326466175	0.0	0.6488698322683382	1.3642507878893209	0.0	0.45623481536485955	1.2216344832238049	0.0	0.4595968465809802	1.0454719454932477	0.0	0.5658353235124441	0.9799502908614393	0.0	0.7215159318464971	1.2434169578549588	0.0	0.75947548065368	1.0677627173313862	0.0	0.6671259618706036	0.9594972833628393	0.0
131	4.366666666666666	0.610871421822758	0.8908423922494197	0.0	0.5363504367900425	0.8616700437695751	0.0	0.5219597519349504	0.6265868361640474	0.0	0.5104852691971853	0.37618380758923003	0.0	0.4459895270093174	0.28474020412940715	0.0	0.4225000419887479	0.29483540103435024	0.0	0.5347814076196512	0.33572852066142983	0.0	0.6866216790375151	0.8674833689595004	0.0	0.7317149758415944	0.6541543437457514	0.0	0.7563929183713302	0.48816072752273604	0.0	0.7421663466882332	0.39403866262489673	0.0	0.7852325725853165	0.403754984681832	0.0	0.759847622514159	0.4717211636307334	0.0	0.5683288366226692	1.2885639935487518	0.0	0.5735469261727778	1.4487338612270226	0.0	0.6339214846341865	1.3640154655107006	0.0	0.4403612811995601	1.22087624846573	0.0	0.4446699030158411	1.0437612752191578	0.0	0.5492944766049893	0.9816161488534623	0.0	0.7027714760833034	1.2452647538550812	0.0	0.74385655937333	1.0695493186427727	0.0	0.6604142273654555	0.9608340104550388	0.0
132	4.4	0.5938581262866138	0.8886907969999692	0.0	0.5184194224726296	0.858175042907181	0.0	0.5094020402937188	0.6195846810793939	0.0	0.5079899782313534	0.3711288807378059	0.0	0.4453812840417647	0.27698995406255883	0.0	0.42125299995557314	0.28805410696125294	0.0	0.5360327601114951	0.3305638894045669	0.0	0.6715977621138185	0.8661848908559919	0.0	0.7217000193159067	0.6547021600482977	0.0	0.7530909627047839	0.4894961863403467	0.0	0.7421356394590388	0.3914692317927003	0.0	0.7839692575363437	0.40206387499105295	0.0	0.7588519400291749	0.47355572399902285	0.0	0.5505087167886479	1.289372291651543	0.0	0.5559097896323707	1.4492452145761308	0.0	0.6178603427181751	1.3666742705760524	0.0	0.4232124193453288	1.2224236796279808	0.0	0.42816294906219055	1.0456671803749022	0.0	0.5340831714294646	0.9824434045165241	0.0	0.6857823887757474	1.2479064425978894	0.0	0.7287968432436095	1.0715456563321386	0.0	0.653266460434682	0.9630639217738959	0.0
133	4.433333333333334	0.576190688603032	0.8882920664551835	0.0	0.49999940262161996	0.8578543498234535	0.0	0.4955433561765509	0.6125004790177839	0.0	0.5050836368677958	0.3685029832207335	0.0	0.443880762816542	0.27618550634647904	0.0	0.42010225083157715	0.28728248791616995	0.0	0.5361457795543259	0.326845773113806	0.0	0.656202138346523	0.8677584541415684	0.0	0.7119982582250032	0.6544353494635855	0.0	0.7495330886453639	0.48946265972335307	0.0	0.7406710289596102	0.3893461620740511	0.0	0.7824113205660908	0.40016437197597654	0.0	0.7573678274044002	0.47327623229448496	0.0	0.5327211333511577	1.2920539777951363	0.0	0.5390113671574484	1.4524060729257569	0.0	0.6016425657503924	1.370709076117562	0.0	0.404791955260985	1.224418417565706	0.0	0.4102762997986505	1.048925871430234	0.0	0.5191440493894551	0.9819931525145787	0.0	0.671001132446804	1.2509033911841625	0.0	0.7144763773830036	1.0733369381702296	0.0	0.6342195208707581	0.9677706265008555	0.0
134	4.466666666666667	0.5598763875994721	0.889432166767943	0.0	0.4831983649721943	0.8604152301972953	0.0	0.48303938850830647	0.6070073473210946	0.0	0.5021965209860668	0.36827954044700667	0.0	0.4426838502083789	0.2783719572094385	0.0	0.41953842045713585	0.2890368564857806	0.0	0.5346220574457595	0.32572386368164424	0.0	0.6405072350714965	0.8711527155328647	0.0	0.7002722227471787	0.6532493950362097	0.0	0.7454858865023583	0.4916759259951065	0.0	0.7375237752399173	0.3902002930453528	0.0	0.7802906523226569	0.4016392167037698	0.0	0.7549421714132123	0.47651025767581917	0.0	0.5157349912691112	1.2957823076812878	0.0	0.523555150549531	1.4568146269509148	0.0	0.585235972763276	1.3744712167433422	0.0	0.38606834137497303	1.2266413871750157	0.0	0.39242301644907207	1.0514365362787907	0.0	0.5050310988196282	0.9854146149277033	0.0	0.6572309198563787	1.2549148100714622	0.0	0.700191201197275	1.0759188533185102	0.0	0.6145913550809856	0.9730027022774278	0.0
135	4.5	0.5452849573148606	0.8924512299327064	0.0	0.46862059046284127	0.8664383145159196	0.0	0.47302404432176537	0.6052858842696112	0.0	0.5000804777377952	0.36846568381851025	0.0	0.44119011278497294	0.28053965555009447	0.0	0.41900040458999505	0.2909883673137738	0.0	0.5321565602181295	0.3273370819721023	0.0	0.6246944127533821	0.8773686029602338	0.0	0.6842426919782684	0.653967952091771	0.0	0.7396200486300203	0.49848688089981147	0.0	0.7338679004210189	0.3943845154666952	0.0	0.7772006282513576	0.4078442896169176	0.0	0.7492666409120916	0.4859414116565272	0.0	0.5005147578188636	1.300981089656972	0.0	0.5085104871891024	1.4624875459386244	0.0	0.5684214823360874	1.3797977630400629	0.0	0.36874721577927305	1.2302413158110506	0.0	0.37558921448310023	1.0529654183575834	0.0	0.4925377515034031	0.9941999339796882	0.0	0.6437199825189832	1.2595848261274418	0.0	0.6854826646191473	1.0785243251444245	0.0	0.6092556223555079	0.9735660108721442	0.0
136	4.533333333333333	0.5322763477924308	0.8962809392637657	0.0	0.45600428184434144	0.8719531518911964	0.0	0.46525246941938	0.60698618793412	0.0	0.49966714117756234	0.36865201868029235	0.0	0.4403282719960751	0.2811983586734288	0.0	0.418087447280715	0.2922220048334322	0.0	0.5311189064298718	0.3304430619240748	0.0	0.610576985837852	0.8838280505839745	0.0	0.6649608522949727	0.6569594227894996	0.0	0.7297165433965617	0.5079944422076296	0.0	0.730610586259829	0.399269599508556	0.0	0.7733612043419673	0.4157734272993593	0.0	0.7373571886603728	0.49823083693186476	0.0	0.48662321666241787	1.3082913895418282	0.0	0.492249644013296	1.4688287005839915	0.0	0.5531420279090103	1.388876865426706	0.0	0.3540789042448826	1.2355837143414452	0.0	0.3600384834818974	1.0540793289267243	0.0	0.479603278880403	1.0020623669351676	0.0	0.6298091241006054	1.2637732730028153	0.0	0.6702216961665477	1.079679160710484	0.0	0.613465009205918	0.968527798086242	0.0
137	4.566666666666666	0.521070368558004	0.8996999624801382	0.0	0.44496592803474627	0.8738805482086945	0.0	0.4591450893413252	0.6097569632411842	0.0	0.5002519500413396	0.3697383718400797	0.0	0.44103382072644837	0.2803174613399698	0.0	0.4170665586686095	0.292411357394771	0.0	0.5323083086854947	0.33306853803310144	0.0	0.5994839692070308	0.8880584087215169	0.0	0.6459004840125303	0.6594640033522112	0.0	0.7149764930015309	0.5155327952766088	0.0	0.7264659288191666	0.40106967227019824	0.0	0.7681892216861836	0.4210416502646201	0.0	0.7187647923692851	0.5074049055335736	0.0	0.4729335593272135	1.3155246145900485	0.0	0.4754251681166325	1.4745014272689771	0.0	0.5409119564007708	1.3985331855126355	0.0	0.3413034458084361	1.240932519566868	0.0	0.3457880666355702	1.0546827379486012	0.0	0.4663426597857779	1.0049898321023203	0.0	0.6150985999244422	1.2674853013060126	0.0	0.6547662515110998	1.0798696857174752	0.0	0.6106533188751389	0.9647675304099184	0.0
